# xmcd
#
# Track frame offsets: 
#        150
#        11370
#        22832
#        51915
#        63575
#        77700
#        91822
#        105530
#        118520
#        130142
#        146075
#        163240
#
# Disc length: 2455 seconds
#
# Revision: 0
# Processed by: cddbd v1.5PL3 Copyright (c) Steve Scherf et al.
# Submitted via: ExactAudioCopy v0.95a5
#
DISCID=9609950c
DTITLE=Various Artist - Legends of Blues: Got My Mojo Working
DYEAR=2003
DGENRE=Blues
TTITLE0=B.B. King/Lucille Talks Back
TTITLE1=Little Junior Parker/Mother-In-Law Blues
TTITLE2=John Lee Hooker/House Rent Boogie
TTITLE3=Howlin' Wolf/Poor Boy
TTITLE4=Muddy Waters/Rolling Stone
TTITLE5=Koko Taylor/I Got What It Takes
TTITLE6=Little Milton/Hard Luck Blues
TTITLE7=T-Bone Walker/Confusion Blues
TTITLE8=Irma Thomas/Good To Me
TTITLE9=Bobby Bland/Do What You Set Out To Do
TTITLE10=Brownie McGhee and Sonney Terry/Hole In The Wall
TTITLE11=B.B. King/Got My Mojo Working
EXTD=
EXTT0=
EXTT1=
EXTT2=
EXTT3=
EXTT4=
EXTT5=
EXTT6=
EXTT7=
EXTT8=
EXTT9=
EXTT10=
EXTT11=
PLAYORDER=
